<svg xmlns="http://www.w3.org/2000/svg" width="582" height="132" fill="none"><path fill="#fff" stroke="#fff" d="m77.07 78.974 12.62 24.1h16.127l-37.862-73-23.138 48.9z"/><path fill="#0AFE9C" stroke="#0AFE9C" d="m52.864 1.074-52.047 102h74l-7.79-13.014H21.352L60.3 14.791z"/><path fill="#fff" d="m171.137 105.074-8.256-21.216h-27.168l-8.16 21.216h-8.736l26.784-68.832h7.776l26.688 68.832zm-18.528-49.632a94 94 0 0 1-.96-2.784q-.672-2.016-1.344-4.128-.576-2.208-.96-3.36-.48 1.92-1.056 3.936a39 39 0 0 1-1.056 3.552 83 83 0 0 1-.864 2.784l-7.776 20.736h21.696zm58.24-2.784q9.504 0 15.264 6.624 5.856 6.624 5.856 19.968 0 8.736-2.688 14.784-2.592 5.952-7.392 9.024-4.704 2.976-11.136 2.976-3.936 0-7.008-1.056t-5.28-2.688a22.3 22.3 0 0 1-3.648-3.744h-.576q.192 1.632.384 4.128t.192 4.32v21.12h-8.448V53.618h6.912l1.152 7.008h.384a21.7 21.7 0 0 1 3.648-4.032q2.208-1.824 5.184-2.88 3.072-1.056 7.2-1.056m-1.536 7.104q-5.184 0-8.352 2.016-3.168 1.92-4.608 5.856t-1.536 9.984v1.632q0 6.336 1.344 10.752t4.512 6.72q3.264 2.304 8.832 2.304 4.704 0 7.68-2.592 3.072-2.592 4.512-7.008 1.536-4.512 1.536-10.272 0-8.832-3.456-14.112-3.36-5.28-10.464-5.28m58.679-7.104q9.504 0 15.264 6.624 5.856 6.624 5.856 19.968 0 8.736-2.688 14.784-2.592 5.952-7.392 9.024-4.704 2.976-11.136 2.976-3.936 0-7.008-1.056t-5.28-2.688a22.3 22.3 0 0 1-3.648-3.744h-.576q.192 1.632.384 4.128t.192 4.32v21.12h-8.448V53.618h6.912l1.152 7.008h.384a21.7 21.7 0 0 1 3.648-4.032q2.208-1.824 5.184-2.88 3.072-1.056 7.2-1.056m-1.536 7.104q-5.184 0-8.352 2.016-3.168 1.92-4.608 5.856t-1.536 9.984v1.632q0 6.336 1.344 10.752t4.512 6.72q3.264 2.304 8.832 2.304 4.704 0 7.68-2.592 3.072-2.592 4.512-7.008 1.536-4.512 1.536-10.272 0-8.832-3.456-14.112-3.36-5.28-10.464-5.28m67.702 31.104q0 4.992-2.496 8.352t-7.104 5.088-10.944 1.728q-5.376 0-9.312-.864-3.84-.864-6.816-2.4v-7.68q3.072 1.536 7.392 2.88a32.7 32.7 0 0 0 8.928 1.248q6.432 0 9.312-2.016 2.88-2.112 2.88-5.568 0-1.92-1.056-3.456t-3.84-3.072q-2.688-1.536-7.776-3.456-4.992-1.92-8.544-3.84t-5.472-4.608-1.92-6.912q0-6.528 5.28-10.08 5.376-3.552 14.016-3.552 4.704 0 8.736.96 4.128.864 7.68 2.496l-2.88 6.72a31 31 0 0 0-4.512-1.632 29.7 29.7 0 0 0-4.704-1.152q-2.4-.48-4.896-.48-5.184 0-7.968 1.728-2.688 1.632-2.688 4.512 0 2.112 1.248 3.648 1.248 1.44 4.128 2.88 2.976 1.344 7.872 3.264 4.896 1.824 8.352 3.744t5.28 4.704q1.824 2.688 1.824 6.816m66.962-38.208q8.736 0 13.056 4.512 4.32 4.416 4.32 14.4v33.504h-8.352v-33.12q0-6.048-2.592-9.12-2.496-3.072-7.872-3.072-7.488 0-10.752 4.32-3.168 4.32-3.168 12.576v28.416h-8.352v-33.12q0-4.032-1.152-6.72-1.152-2.784-3.456-4.128t-5.952-1.344q-5.184 0-8.16 2.208-2.976 2.112-4.32 6.24-1.248 4.128-1.248 10.176v26.688h-8.448V53.618h6.816l1.248 7.008h.48q1.632-2.688 3.936-4.416a16.5 16.5 0 0 1 5.28-2.688 20.6 20.6 0 0 1 5.952-.864q5.952 0 9.888 2.112 4.032 2.112 5.856 6.528h.48q2.592-4.416 7.008-6.528a22.15 22.15 0 0 1 9.504-2.112m50.838.096q9.408 0 13.92 4.128t4.512 13.152v35.04h-6.144l-1.632-7.296h-.384q-2.208 2.784-4.608 4.704-2.304 1.824-5.376 2.688-2.976.864-7.296.864-4.608 0-8.352-1.632-3.648-1.632-5.76-4.992-2.112-3.456-2.112-8.64 0-7.68 6.048-11.808 6.048-4.224 18.624-4.608l8.736-.288v-3.072q0-6.432-2.784-8.928t-7.872-2.496q-4.032 0-7.68 1.248a50.4 50.4 0 0 0-6.816 2.688l-2.592-6.336q3.36-1.824 7.968-3.072 4.608-1.344 9.6-1.344m2.496 27.456q-9.6.384-13.344 3.072-3.648 2.688-3.648 7.584 0 4.32 2.592 6.336 2.688 2.016 6.816 2.016 6.528 0 10.848-3.552 4.32-3.648 4.32-11.136v-4.608zm53.909-27.552q1.44 0 3.072.192 1.728.096 2.976.384l-1.056 7.776a28 28 0 0 0-2.784-.48 21 21 0 0 0-2.784-.192q-2.976 0-5.664 1.248t-4.8 3.552q-2.112 2.208-3.36 5.376-1.152 3.168-1.152 7.104v27.456h-8.448V53.618h6.912l.96 9.408h.384a24 24 0 0 1 3.936-5.184 16.9 16.9 0 0 1 5.28-3.744q2.976-1.44 6.528-1.44m30.92 46.464q1.92 0 3.936-.288 2.016-.384 3.264-.768v6.432q-1.344.672-3.84 1.056-2.496.48-4.8.48-4.032 0-7.488-1.344-3.36-1.44-5.472-4.896t-2.112-9.696V60.146h-7.296v-4.032l7.392-3.36 3.36-10.944h4.992v11.808h14.88v6.528h-14.88v29.76q0 4.704 2.208 7.008 2.304 2.208 5.856 2.208m32.768 0q1.92 0 3.936-.288 2.016-.384 3.264-.768v6.432q-1.344.672-3.84 1.056-2.496.48-4.8.48-4.032 0-7.488-1.344-3.36-1.44-5.472-4.896t-2.112-9.696V60.146h-7.296v-4.032l7.392-3.36 3.36-10.944h4.992v11.808h14.88v6.528h-14.88v29.76q0 4.704 2.208 7.008 2.304 2.208 5.856 2.208"/></svg>